<?xml version="1.0" encoding="UTF-8"?>
<svg id="Ebene_2" xmlns="http://www.w3.org/2000/svg" viewBox="0 0 995.43 162.39">
  <g id="Ebene_1-2" data-name="Ebene_1">
    <path d="M784.56,53.25c-17.12,0-29.64,11.9-29.64,28s12.51,28,29.64,28,29.64-11.84,29.64-28-12.63-28-29.64-28ZM800.95,81.25c0,9.73-6.88,16.79-16.38,16.79s-16.38-7.06-16.38-16.79,6.88-16.79,16.38-16.79,16.38,7.06,16.38,16.79Z"/>
    <path d="M88.2.32C43.55-3.61,4.18,29.46.32,74.14c-3.92,44.68,29.12,84.07,73.78,87.94,44.65,3.93,84.02-29.14,87.88-73.82C165.9,43.57,132.85,4.19,88.2.32ZM99.92,24.34l9.1,18.27-18.26,9.11-9.1-18.27,18.26-9.11ZM74.38,23.14l11.15,3.76-18.43,9.22-11.15-3.76,18.43-9.22ZM32.85,92.52l16.15,5.41-21.62,10.76,5.4-16.17h.06ZM46.56,104.48l31.29-15.6,15.59,31.3-46.87-15.71ZM82.57,139.14l5.4-16.16,10.75,21.63-16.15-5.41v-.06ZM70.62,86.77l11.09-33.18,33.16,11.1-44.25,22.08ZM124.55,69.47l-5.86-11.78,17.69,5.92-11.78,5.86h-.06Z"/>
    <path d="M217.21,64.46v12.98h24.97v11.21h-24.97v20.66h-14.16v-56.06h41.24v11.21h-27.13.06Z"/>
    <path d="M276.31,93.49h-11.15v15.77h-14.16v-56.06h24.86c14.73,0,23.15,7.06,23.15,19.52,0,8.59-3.58,14.74-10.07,18.04l11.66,18.5h-16.04l-8.25-15.77ZM275.92,82.28c6.14,0,9.73-3.13,9.73-9.05s-3.58-8.82-9.73-8.82h-10.75v17.87h10.75Z"/>
    <path d="M321.25,98.95l-4.04,10.3h-14.56l24-56.06h14.56l23.44,56.06h-15.13l-3.98-10.3h-24.35.06ZM333.48,67.42l-8.13,20.72h16.04l-7.96-20.72h.06Z"/>
    <path d="M406.86,109.26l-25.6-34.49v34.49h-13.25v-56.06h12.46l25.65,34.61v-34.61h13.2v56.06h-12.46Z"/>
    <path d="M452.03,87.23l-7.4,8.25v13.77h-14.16v-56.06h14.16v24.25l21.33-24.25h16.38l-20.65,23.22,22.01,32.84h-16.95l-14.73-22.03Z"/>
    <path d="M502.48,98.95l-4.04,10.3h-14.56l24.01-56.06h14.56l23.44,56.06h-15.13l-3.98-10.3h-24.35.06ZM514.71,67.42l-8.13,20.72h16.04l-7.96-20.72h.06Z"/>
    <path d="M871.77,109.26v-56.06h14.17v56.06h-14.17Z"/>
    <path d="M599.18,93.49h-11.15v15.77h-14.16v-56.06h24.86c14.73,0,23.15,7.06,23.15,19.52,0,8.59-3.58,14.74-10.07,18.04l11.66,18.5h-16.04l-8.25-15.77ZM598.78,82.28c6.14,0,9.73-3.13,9.73-9.05s-3.58-8.82-9.73-8.82h-10.75v17.87h10.75Z"/>
    <path d="M950.38,103l4.26-9.45c4.55,3.3,11.38,5.63,17.86,5.63,7.46,0,10.47-2.5,10.47-5.8,0-10.13-31.51-3.19-31.51-23.28,0-9.22,7.45-16.85,22.81-16.85,6.82,0,13.76,1.65,18.83,4.78l-3.87,9.51c-5.01-2.85-10.24-4.27-15.02-4.27-7.45,0-10.3,2.79-10.3,6.2,0,9.96,31.52,3.07,31.52,22.99,0,9.05-7.51,16.79-22.98,16.79-8.59,0-17.24-2.56-22.07-6.26Z"/>
    <path d="M737.98,80.11c4.55-2.39,7.45-6.72,7.45-12.35,0-8.71-7.22-14.57-21.22-14.57h-27.36v56.06h28.95c14.73,0,22.41-5.58,22.41-15.31,0-7.06-3.98-11.84-10.24-13.83ZM722.62,62.98c6.31,0,9.78,2.16,9.78,6.55s-3.41,6.66-9.78,6.66h-11.6v-13.21h11.6ZM724.84,99.47h-13.88v-13.83h13.88c6.71,0,10.29,2.22,10.29,6.94s-3.58,6.89-10.29,6.89Z"/>
    <path d="M939.17,92.92c-1.99,1.54-7.22,5.01-14.51,5.12h-.34c-9.44-.11-16.26-7.11-16.26-16.79s6.82-16.68,16.26-16.79h.34c7.34.11,12.58,3.53,14.51,5.12l4.44-9.79v-.17c-5.07-3.98-11.61-6.43-19.17-6.43-17.12,0-29.64,11.9-29.64,28s12.52,28,29.64,28c7.56,0,14.1-2.45,19.22-6.43v-.17l-4.49-9.79v.11Z"/>
    <path d="M658.28,53.25c-17.12,0-29.64,11.9-29.64,28s12.51,28,29.64,28,29.64-11.84,29.64-28-12.63-28-29.64-28ZM674.67,81.25c0,9.73-6.88,16.79-16.38,16.79s-16.38-7.06-16.38-16.79,6.88-16.79,16.38-16.79,16.38,7.06,16.38,16.79Z"/>
    <path d="M816.19,53.25v11.21h17.35v44.79h14.16v-44.79h17.29v-11.21h-48.81Z"/>
  </g>
</svg>